<svg width="512" height="512" viewBox="0 0 512 512" fill="none" xmlns="http://www.w3.org/2000/svg">
<rect width="512" height="512" rx="128" fill="black"/>
<path d="M388.047 273.693C386.765 272.407 385.156 271.496 383.394 271.055C381.633 270.615 379.784 270.662 378.047 271.193C358.979 276.957 338.705 277.441 319.384 272.591C300.063 267.742 282.42 257.742 268.334 243.656C254.249 229.57 244.248 211.927 239.399 192.606C234.55 173.285 235.033 153.011 240.797 133.943C241.332 132.205 241.384 130.355 240.945 128.59C240.507 126.826 239.597 125.214 238.311 123.929C237.026 122.643 235.414 121.733 233.65 121.295C231.885 120.857 230.035 120.908 228.297 121.443C201.935 129.518 178.792 145.703 162.16 167.693C147.615 187.004 138.743 209.987 136.541 234.062C134.338 258.137 138.893 282.35 149.692 303.979C160.492 325.608 177.109 343.797 197.676 356.503C218.244 369.209 241.947 375.928 266.122 375.905C294.327 375.992 321.781 366.823 344.272 349.805C366.262 333.174 382.447 310.03 390.522 283.668C391.051 281.937 391.1 280.095 390.664 278.338C390.228 276.581 389.324 274.976 388.047 273.693Z" fill="white"/>
</svg>
